<svg xmlns="http://www.w3.org/2000/svg" xmlns:xlink="http://www.w3.org/1999/xlink" fill="none" version="1.1" width="320" height="320" viewBox="0 0 320 320"><defs><clipPath id="master_svg0_25_0985/0_26229"><rect x="0" y="0" width="320" height="320" rx="0"/></clipPath></defs><g><g clip-path="url(#master_svg0_25_0985/0_26229)"><g><path d="M314.1067666015625,209.324883203125C304.8087666015625,265.05828320312503,245.4667666015625,302.222283203125,160.8177666015625,302.222283203125C76.1685666015625,302.222283203125,16.8352166015625,265.05828320312503,7.5462866015625,209.324883203125C5.3507266015625,196.177983203125,8.9329566015625,137.14688320312501,16.9151666015625,125.715743203125C39.6618666015625,93.146883203125,47.7951666015625,217.849383203125,160.8177666015625,217.849383203125C283.9017666015625,217.849383203125,282.0617666015625,93.155783203125,304.8087666015625,125.715743203125C312.7907666015625,137.14688320312501,316.2927666015625,196.177983203125,314.1067666015625,209.324883203125C314.1067666015625,209.324883203125,314.1067666015625,209.324883203125,314.1067666015625,209.324883203125C314.1067666015625,209.324883203125,314.1067666015625,209.324883203125,314.1067666015625,209.324883203125Z" fill="#FFAC33" fill-opacity="1"/></g><g><path d="M160.81813671875,53.288818359375C77.87573671875,53.288818359375,10.64013671875,94.035518359375,10.64013671875,144.30211835937502C10.64013671875,194.568818359375,77.87573671875,235.324818359375,160.81813671875,235.324818359375C243.75113671875,235.324818359375,310.99613671875,194.568818359375,310.99613671875,144.30211835937502C310.99613671875,94.035518359375,243.75113671875,53.288818359375,160.81813671875,53.288818359375C160.81813671875,53.288818359375,160.81813671875,53.288818359375,160.81813671875,53.288818359375ZM160.81813671875,172.168818359375C132.60413671875,172.168818359375,109.72453671875,165.928818359375,109.72453671875,158.230818359375C109.72453671875,150.53321835937498,132.60413671875,144.30211835937502,160.81813671875,144.30211835937502C189.02213671875,144.30211835937502,211.90213671875,150.53321835937498,211.90213671875,158.230818359375C211.91113671875,165.928818359375,189.03113671875,172.168818359375,160.81813671875,172.168818359375C160.81813671875,172.168818359375,160.81813671875,172.168818359375,160.81813671875,172.168818359375Z" fill="#8A4B38" fill-opacity="1"/></g><g><path d="M15.288397890625,129.98205169921874C9.483957890625,139.27089169921874,7.110617890625,178.81759169921875,19.546207890625,197.33319169921873C38.515137890625,225.59949169921873,47.804037890625,211.26209169921873,61.741737890625,215.52869169921877C82.497337890625,221.88449169921876,84.035137890625,238.28449169921873,100.444137890625,246.48849169921874C119.021837890625,255.77749169921876,129.830837890625,253.07549169921876,156.177837890625,246.48849169921874C193.341837890625,237.19949169921875,216.950837890625,256.15949169921873,239.777837890625,246.48849169921874C258.506837890625,238.55049169921875,269.217837890625,209.71539169921874,279.652837890625,206.23979169921876C312.790837890625,195.19979169921874,319.786837890625,142.91539169921876,295.128837890625,121.46649169921875C287.394837890625,137.72429169921875,249.457837890625,196.16869169921875,225.074837890625,198.88869169921875C200.683837890625,201.59979169921877,127.528837890625,207.77759169921876,96.568437890625,191.91979169921876C65.599537890625,176.05319169921876,34.257337890624996,156.31089169921876,30.381737890625,150.88869169921875C26.506237890625002,145.45759169921874,15.288397890625,129.98205169921874,15.288397890625,129.98205169921874C15.288397890625,129.98205169921874,15.288397890625,129.98205169921874,15.288397890625,129.98205169921874C15.288397890625,129.98205169921874,15.288397890625,129.98205169921874,15.288397890625,129.98205169921874Z" fill="#8A4B38" fill-opacity="1"/></g><g><path d="M160.81725859375,123.395751953125C127.46615859375,123.395751953125,100.43505859375,134.311351953125,100.43505859375,147.777951953125C100.43505859375,153.013551953125,104.55061859375,157.849051953125,111.50175859375,161.82245195312498C110.38172859375,160.675751953125,109.72394859375,159.47575195312498,109.72394859375,158.231351953125C109.72394859375,150.533551953125,132.60395859375,144.302451953125,160.81725859375,144.302451953125C189.02175859375,144.302451953125,211.90205859374998,150.533551953125,211.90205859374998,158.231351953125C211.90205859374998,159.47575195312498,211.25305859374998,160.666851953125,210.12405859375,161.82245195312498C217.07505859375,157.849051953125,221.19905859375,153.013551953125,221.19905859375,147.777951953125C221.20805859375,134.311351953125,194.16835859374999,123.395751953125,160.81725859375,123.395751953125C160.81725859375,123.395751953125,160.81725859375,123.395751953125,160.81725859375,123.395751953125C160.81725859375,123.395751953125,160.81725859375,123.395751953125,160.81725859375,123.395751953125Z" fill="#F4900C" fill-opacity="1"/></g><g><path d="M39.2892484765625,161.33346474609374C35.9558984765625,161.33346474609374,32.7381184765625,159.52896474609375,31.0670084765625,156.38236474609374C28.6670084765625,151.84896474609374,30.4003394765625,146.22236474609375,34.942558476562496,143.83126474609375C34.942558476562496,143.83126474609375,55.458138476562496,132.98679474609375,55.458138476562496,132.98679474609375C59.982538476562496,130.56901474609376,65.6092384765625,132.32012274609374,68.0092384765625,136.86234474609375C70.4092384765625,141.39566474609376,68.6759384765625,147.02236474609376,64.1337384765625,149.41346474609375C64.1337384765625,149.41346474609375,43.6181384765625,160.25786474609376,43.6181384765625,160.25786474609376C42.2314384765625,160.98676474609374,40.7470384765625,161.33346474609374,39.2892484765625,161.33346474609374C39.2892484765625,161.33346474609374,39.2892484765625,161.33346474609374,39.2892484765625,161.33346474609374ZM144.9509384765625,230.61356474609374C141.3069384765625,230.61356474609374,137.8489384765625,228.46246474609376,136.3649384765625,224.87136474609375C136.3649384765625,224.87136474609375,129.7869384765625,208.99566474609375,129.7869384765625,208.99566474609375C127.8225384765625,204.25786474609373,130.0709384765625,198.82676474609374,134.8089384765625,196.86236474609376C139.55593847656252,194.90676474609376,144.97793847656249,197.14676474609377,146.94293847656252,201.89346474609374C146.94293847656252,201.89346474609374,153.51993847656252,217.76896474609373,153.51993847656252,217.76896474609373C155.4849384765625,222.50686474609375,153.2359384765625,227.94686474609375,148.4889384765625,229.90246474609376C147.3429384765625,230.39126474609375,146.1339384765625,230.61356474609374,144.9509384765625,230.61356474609374C144.9509384765625,230.61356474609374,144.9509384765625,230.61356474609374,144.9509384765625,230.61356474609374C144.9509384765625,230.61356474609374,144.9509384765625,230.61356474609374,144.9509384765625,230.61356474609374Z" fill="#F4ABBA" fill-opacity="1"/></g><g><path d="M250.2311553515625,193.45752763671874C248.6222753515625,193.45752763671874,246.9956153515625,193.03982763671874,245.5200653515625,192.15982763671875C241.1022823515625,189.55532763671874,239.6356153515625,183.84872763671876,242.2489553515625,179.43982763671875C242.2489553515625,179.43982763671875,252.3111353515625,162.40870763671876,252.3111353515625,162.40870763671876C254.9156353515625,157.99981763671875,260.6489353515625,156.53314763671875,265.0311353515625,159.13759763671874C269.4489353515625,161.75092763671876,270.9156353515625,167.44867763671874,268.3022353515625,171.86642763671875C268.3022353515625,171.86642763671875,258.2400353515625,188.88872763671876,258.2400353515625,188.88872763671876C256.5067353515625,191.82202763671876,253.4133353515625,193.45752763671874,250.2311553515625,193.45752763671874C250.2311553515625,193.45752763671874,250.2311553515625,193.45752763671874,250.2311553515625,193.45752763671874C250.2311553515625,193.45752763671874,250.2311553515625,193.45752763671874,250.2311553515625,193.45752763671874Z" fill="#55ACEE" fill-opacity="1"/></g><g><path d="M265.7155580078125,124.44458144531251C260.7377580078125,124.44458144531251,256.6221580078125,120.1689814453125,256.4443580078125,115.1467814453125C256.2577580078125,110.02678144531251,260.2755580078125,105.5556814453125,265.3955580078125,105.3689814453125C265.3955580078125,105.3689814453125,276.22195800781253,104.9067814453125,276.22195800781253,104.9067814453125C281.4399580078125,104.8445814453125,285.6619580078125,108.6933814453125,285.8309580078125,113.8222814453125C286.01795800781247,118.9511814453125,281.9999580078125,123.5645814453125,276.8799580078125,123.7422814453125C276.8799580078125,123.7422814453125,266.0532580078125,124.44458144531251,266.0532580078125,124.44458144531251C266.0532580078125,124.44458144531251,265.7155580078125,124.44458144531251,265.7155580078125,124.44458144531251C265.7155580078125,124.44458144531251,265.7155580078125,124.44458144531251,265.7155580078125,124.44458144531251ZM175.9289380078125,87.7867814453125C171.9822580078125,87.7867814453125,168.3289380078125,85.2533814453125,167.0667090078125,81.2978814453125C165.5200480078125,76.4089814453125,168.2311480078125,71.1912314453125,173.1200380078125,69.6356714453125C173.1200380078125,69.6356714453125,180.4622580078125,67.3156714453125,180.4622580078125,67.3156714453125C185.4044580078125,65.7690114453125,190.5778580078125,68.4801214453125,192.1244580078125,73.3778914453125C193.6800580078125,78.2667814453125,190.9600580078125,83.4845814453125,186.0711580078125,85.0400814453125C186.0711580078125,85.0400814453125,178.7289580078125,87.3600814453125,178.7289580078125,87.3600814453125C177.7955580078125,87.6533814453125,176.8533580078125,87.7867814453125,175.9289380078125,87.7867814453125C175.9289380078125,87.7867814453125,175.9289380078125,87.7867814453125,175.9289380078125,87.7867814453125C175.9289380078125,87.7867814453125,175.9289380078125,87.7867814453125,175.9289380078125,87.7867814453125Z" fill="#F4ABBA" fill-opacity="1"/></g><g><path d="M124.4268267578125,102.88008037109375C123.0312267578125,102.88008037109375,121.6178267578125,102.56008037109375,120.2845267578125,101.90228037109375C120.2845267578125,101.90228037109375,113.3156767578125,98.41778037109376,113.3156767578125,98.41778037109376C108.7290127578125,96.12448037109375,106.8623467578125,90.54226037109375,109.15567975781249,85.95563037109375C111.4490167578125,81.36896637109375,117.03123675781251,79.50230037109375,121.6179267578125,81.79563337109374C121.6179267578125,81.79563337109374,128.5867267578125,85.28008037109375,128.5867267578125,85.28008037109375C133.1734267578125,87.57341037109376,135.04012675781252,93.15568037109375,132.7467267578125,97.74238037109374C131.1112267578125,100.99568037109375,127.8312267578125,102.88008037109375,124.4268267578125,102.88008037109375C124.4268267578125,102.88008037109375,124.4268267578125,102.88008037109375,124.4268267578125,102.88008037109375ZM205.3331267578125,220.92388037109376C203.9465267578125,220.92388037109376,202.5331267578125,220.61288037109375,201.1998267578125,219.95488037109374C201.1998267578125,219.95488037109374,194.2312267578125,216.47988037109374,194.2312267578125,216.47988037109374C189.6356267578125,214.18688037109376,187.7690267578125,208.61288037109375,190.0535267578125,204.02688037109374C192.3379267578125,199.43088037109374,197.9109267578125,197.56388037109375,202.50652675781248,199.84888037109374C202.50652675781248,199.84888037109374,209.4749267578125,203.32388037109376,209.4749267578125,203.32388037109376C214.07092675781252,205.61788037109375,215.9379267578125,211.19088037109375,213.6529267578125,215.77788037109374C212.0349267578125,219.03988037109374,208.7379267578125,220.92388037109376,205.3331267578125,220.92388037109376C205.3331267578125,220.92388037109376,205.3331267578125,220.92388037109376,205.3331267578125,220.92388037109376C205.3331267578125,220.92388037109376,205.3331267578125,220.92388037109376,205.3331267578125,220.92388037109376Z" fill="#88C9F9" fill-opacity="1"/></g><g><path d="M83.7864396484375,200.42586425781252C82.5598396484375,200.42586425781252,81.3243396484375,200.1948642578125,80.1243396484375,199.6708642578125C75.4132396484375,197.64386425781248,73.22643964843749,192.1858642578125,75.2531396484375,187.4750642578125C75.2531396484375,187.4750642578125,78.7375396484375,179.3509642578125,78.7375396484375,179.3509642578125C80.7642396484375,174.6487642578125,86.2310396484375,172.42656425781252,90.94213964843749,174.4798642578125C95.6532396484375,176.49766425781252,97.83993964843751,181.9639642578125,95.8132396484375,186.6750642578125C95.8132396484375,186.6750642578125,92.3287396484375,194.7998642578125,92.3287396484375,194.7998642578125C90.8176396484375,198.3108642578125,87.3953396484375,200.42586425781252,83.7864396484375,200.42586425781252C83.7864396484375,200.42586425781252,83.7864396484375,200.42586425781252,83.7864396484375,200.42586425781252C83.7864396484375,200.42586425781252,83.7864396484375,200.42586425781252,83.7864396484375,200.42586425781252ZM222.3821396484375,112.5598642578125C218.8001396484375,112.5598642578125,215.3861396484375,110.4798642578125,213.8661396484375,106.9865642578125C211.8041396484375,102.2843642578125,213.9551396484375,96.8088042578125,218.6491396484375,94.7554642578125C218.6491396484375,94.7554642578125,224.8351396484375,92.0443522578125,224.8351396484375,92.0443522578125C229.5461396484375,89.9821342578125,235.0221396484375,92.1332422578125,237.0661396484375,96.8265742578125C239.1201396484375,101.5287642578125,236.9771396484375,107.0043642578125,232.2841396484375,109.0665642578125C232.2841396484375,109.0665642578125,226.0971396484375,111.7776642578125,226.0971396484375,111.7776642578125C224.8801396484375,112.3109642578125,223.6171396484375,112.5598642578125,222.3821396484375,112.5598642578125C222.3821396484375,112.5598642578125,222.3821396484375,112.5598642578125,222.3821396484375,112.5598642578125C222.3821396484375,112.5598642578125,222.3821396484375,112.5598642578125,222.3821396484375,112.5598642578125ZM71.4220396484375,112.1776642578125C70.7287396484375,112.1776642578125,70.0265396484375,112.0976642578125,69.3332396484375,111.9376642578125C69.3332396484375,111.9376642578125,64.3020696484375,110.7820642578125,64.3020696484375,110.7820642578125C59.3065196484375,109.6265642578125,56.1776286484375,104.6398642578125,57.3331836484375,99.6443542578125C58.4798496484375,94.6399142578125,63.4754096484375,91.5287982578125,68.4710396484375,92.67546425781251C68.4710396484375,92.67546425781251,73.50213964843749,93.8310242578125,73.50213964843749,93.8310242578125C78.4976396484375,94.9865742578125,81.6265396484375,99.9732442578125,80.4710396484375,104.9687642578125C79.4754396484375,109.2620642578125,75.6442396484375,112.1776642578125,71.4220396484375,112.1776642578125C71.4220396484375,112.1776642578125,71.4220396484375,112.1776642578125,71.4220396484375,112.1776642578125Z" fill="#55ACEE" fill-opacity="1"/></g></g></g></svg>